M48
; DRILL file {KiCad 7.0.7} date Sat 16 Sep 2023 07:55:32 PM MDT
; FORMAT={-:-/ absolute / metric / decimal}
; #@! TF.CreationDate,2023-09-16T19:55:32-06:00
; #@! TF.GenerationSoftware,Kicad,Pcbnew,7.0.7
; #@! TF.FileFunction,Plated,1,2,PTH
FMAT,2
METRIC
; #@! TA.AperFunction,Plated,PTH,ViaDrill
T1C0.400
; #@! TA.AperFunction,Plated,PTH,ComponentDrill
T2C0.460
; #@! TA.AperFunction,Plated,PTH,ComponentDrill
T3C1.000
%
G90
G05
T1
X143.51Y-81.28
X143.51Y-86.36
X143.51Y-90.17
X158.75Y-81.28
X158.75Y-90.17
X158.75Y-99.06
X158.75Y-104.14
X158.75Y-107.95
T2
X146.75Y-72.28
X155.51Y-72.28
T3
X147.32Y-114.92
X147.32Y-117.46
X147.32Y-120.0
X147.32Y-122.54
X147.32Y-125.08
X147.32Y-127.62
X154.94Y-114.92
X154.94Y-117.46
X154.94Y-120.0
X154.94Y-122.54
X154.94Y-125.08
X154.94Y-127.62
T0
M30
