%TF.GenerationSoftware,KiCad,Pcbnew,7.0.7*%
%TF.CreationDate,2023-09-16T19:55:21-06:00*%
%TF.ProjectId,dra818-breakout,64726138-3138-42d6-9272-65616b6f7574,rev?*%
%TF.SameCoordinates,Original*%
%TF.FileFunction,Legend,Bot*%
%TF.FilePolarity,Positive*%
%FSLAX46Y46*%
G04 Gerber Fmt 4.6, Leading zero omitted, Abs format (unit mm)*
G04 Created by KiCad (PCBNEW 7.0.7) date 2023-09-16 19:55:21*
%MOMM*%
%LPD*%
G01*
G04 APERTURE LIST*
%ADD10C,0.150000*%
%ADD11C,0.120000*%
G04 APERTURE END LIST*
D10*
X147653333Y-112044819D02*
X147653333Y-112759104D01*
X147653333Y-112759104D02*
X147700952Y-112901961D01*
X147700952Y-112901961D02*
X147796190Y-112997200D01*
X147796190Y-112997200D02*
X147939047Y-113044819D01*
X147939047Y-113044819D02*
X148034285Y-113044819D01*
X147224761Y-112140057D02*
X147177142Y-112092438D01*
X147177142Y-112092438D02*
X147081904Y-112044819D01*
X147081904Y-112044819D02*
X146843809Y-112044819D01*
X146843809Y-112044819D02*
X146748571Y-112092438D01*
X146748571Y-112092438D02*
X146700952Y-112140057D01*
X146700952Y-112140057D02*
X146653333Y-112235295D01*
X146653333Y-112235295D02*
X146653333Y-112330533D01*
X146653333Y-112330533D02*
X146700952Y-112473390D01*
X146700952Y-112473390D02*
X147272380Y-113044819D01*
X147272380Y-113044819D02*
X146653333Y-113044819D01*
X155273333Y-112044819D02*
X155273333Y-112759104D01*
X155273333Y-112759104D02*
X155320952Y-112901961D01*
X155320952Y-112901961D02*
X155416190Y-112997200D01*
X155416190Y-112997200D02*
X155559047Y-113044819D01*
X155559047Y-113044819D02*
X155654285Y-113044819D01*
X154273333Y-113044819D02*
X154844761Y-113044819D01*
X154559047Y-113044819D02*
X154559047Y-112044819D01*
X154559047Y-112044819D02*
X154654285Y-112187676D01*
X154654285Y-112187676D02*
X154749523Y-112282914D01*
X154749523Y-112282914D02*
X154844761Y-112330533D01*
D11*
%TO.C,J2*%
X148650000Y-116190000D02*
X148650000Y-128950000D01*
X148650000Y-114920000D02*
X148650000Y-113590000D01*
X148650000Y-113590000D02*
X147320000Y-113590000D01*
X148650000Y-116190000D02*
X145990000Y-116190000D01*
X148650000Y-128950000D02*
X145990000Y-128950000D01*
X145990000Y-116190000D02*
X145990000Y-128950000D01*
%TO.C,J1*%
X156270000Y-116190000D02*
X156270000Y-128950000D01*
X156270000Y-114920000D02*
X156270000Y-113590000D01*
X156270000Y-113590000D02*
X154940000Y-113590000D01*
X156270000Y-116190000D02*
X153610000Y-116190000D01*
X156270000Y-128950000D02*
X153610000Y-128950000D01*
X153610000Y-116190000D02*
X153610000Y-128950000D01*
%TD*%
M02*
