%TF.GenerationSoftware,KiCad,Pcbnew,7.0.7*%
%TF.CreationDate,2023-09-17T23:45:08-06:00*%
%TF.ProjectId,dra818-breakout,64726138-3138-42d6-9272-65616b6f7574,1*%
%TF.SameCoordinates,Original*%
%TF.FileFunction,Drillmap*%
%TF.FilePolarity,Positive*%
%FSLAX45Y45*%
G04 Gerber Fmt 4.5, Leading zero omitted, Abs format (unit mm)*
G04 Created by KiCad (PCBNEW 7.0.7) date 2023-09-17 23:45:08*
%MOMM*%
%LPD*%
G01*
G04 APERTURE LIST*
%ADD10C,0.100000*%
%ADD11C,0.200000*%
G04 APERTURE END LIST*
D10*
X14224000Y-12827000D02*
G75*
G03*
X14351000Y-12954000I127000J0D01*
G01*
X14478000Y-6731000D02*
X14478000Y-7239000D01*
X16129000Y-11303000D02*
G75*
G03*
X16256000Y-11176000I0J127000D01*
G01*
X14097000Y-7366000D02*
X14351000Y-7366000D01*
X13970000Y-11176000D02*
G75*
G03*
X14097000Y-11303000I127000J0D01*
G01*
X16256000Y-7493000D02*
G75*
G03*
X16129000Y-7366000I-127000J0D01*
G01*
X16002000Y-11430000D02*
X16002000Y-12827000D01*
X14605000Y-6604000D02*
G75*
G03*
X14478000Y-6731000I0J-127000D01*
G01*
X15875000Y-12954000D02*
G75*
G03*
X16002000Y-12827000I0J127000D01*
G01*
X14097000Y-7366000D02*
G75*
G03*
X13970000Y-7493000I0J-127000D01*
G01*
X13970000Y-11176000D02*
X13970000Y-7493000D01*
X16256000Y-7493000D02*
X16256000Y-11176000D01*
X14351000Y-7366000D02*
G75*
G03*
X14478000Y-7239000I0J127000D01*
G01*
X14224000Y-11430000D02*
X14224000Y-12827000D01*
X15748000Y-6731000D02*
G75*
G03*
X15621000Y-6604000I-127000J0D01*
G01*
X15875000Y-7366000D02*
X16129000Y-7366000D01*
X14351000Y-12954000D02*
X15875000Y-12954000D01*
X14605000Y-6604000D02*
X15621000Y-6604000D01*
X14224000Y-11430000D02*
G75*
G03*
X14097000Y-11303000I-127000J0D01*
G01*
X15748000Y-7239000D02*
X15748000Y-6731000D01*
X15748000Y-7239000D02*
G75*
G03*
X15875000Y-7366000I127000J0D01*
G01*
X16129000Y-11303000D02*
G75*
G03*
X16002000Y-11430000I0J-127000D01*
G01*
D11*
X14225777Y-13270484D02*
X14225777Y-13070484D01*
X14225777Y-13070484D02*
X14273396Y-13070484D01*
X14273396Y-13070484D02*
X14301967Y-13080008D01*
X14301967Y-13080008D02*
X14321015Y-13099055D01*
X14321015Y-13099055D02*
X14330539Y-13118103D01*
X14330539Y-13118103D02*
X14340062Y-13156198D01*
X14340062Y-13156198D02*
X14340062Y-13184769D01*
X14340062Y-13184769D02*
X14330539Y-13222865D01*
X14330539Y-13222865D02*
X14321015Y-13241912D01*
X14321015Y-13241912D02*
X14301967Y-13260960D01*
X14301967Y-13260960D02*
X14273396Y-13270484D01*
X14273396Y-13270484D02*
X14225777Y-13270484D01*
X14425777Y-13270484D02*
X14425777Y-13137150D01*
X14425777Y-13175246D02*
X14435301Y-13156198D01*
X14435301Y-13156198D02*
X14444824Y-13146674D01*
X14444824Y-13146674D02*
X14463872Y-13137150D01*
X14463872Y-13137150D02*
X14482920Y-13137150D01*
X14549586Y-13270484D02*
X14549586Y-13137150D01*
X14549586Y-13070484D02*
X14540062Y-13080008D01*
X14540062Y-13080008D02*
X14549586Y-13089531D01*
X14549586Y-13089531D02*
X14559110Y-13080008D01*
X14559110Y-13080008D02*
X14549586Y-13070484D01*
X14549586Y-13070484D02*
X14549586Y-13089531D01*
X14673396Y-13270484D02*
X14654348Y-13260960D01*
X14654348Y-13260960D02*
X14644824Y-13241912D01*
X14644824Y-13241912D02*
X14644824Y-13070484D01*
X14778158Y-13270484D02*
X14759110Y-13260960D01*
X14759110Y-13260960D02*
X14749586Y-13241912D01*
X14749586Y-13241912D02*
X14749586Y-13070484D01*
X15006729Y-13270484D02*
X15006729Y-13070484D01*
X15006729Y-13070484D02*
X15073396Y-13213341D01*
X15073396Y-13213341D02*
X15140062Y-13070484D01*
X15140062Y-13070484D02*
X15140062Y-13270484D01*
X15321015Y-13270484D02*
X15321015Y-13165722D01*
X15321015Y-13165722D02*
X15311491Y-13146674D01*
X15311491Y-13146674D02*
X15292443Y-13137150D01*
X15292443Y-13137150D02*
X15254348Y-13137150D01*
X15254348Y-13137150D02*
X15235301Y-13146674D01*
X15321015Y-13260960D02*
X15301967Y-13270484D01*
X15301967Y-13270484D02*
X15254348Y-13270484D01*
X15254348Y-13270484D02*
X15235301Y-13260960D01*
X15235301Y-13260960D02*
X15225777Y-13241912D01*
X15225777Y-13241912D02*
X15225777Y-13222865D01*
X15225777Y-13222865D02*
X15235301Y-13203817D01*
X15235301Y-13203817D02*
X15254348Y-13194293D01*
X15254348Y-13194293D02*
X15301967Y-13194293D01*
X15301967Y-13194293D02*
X15321015Y-13184769D01*
X15416253Y-13137150D02*
X15416253Y-13337150D01*
X15416253Y-13146674D02*
X15435301Y-13137150D01*
X15435301Y-13137150D02*
X15473396Y-13137150D01*
X15473396Y-13137150D02*
X15492443Y-13146674D01*
X15492443Y-13146674D02*
X15501967Y-13156198D01*
X15501967Y-13156198D02*
X15511491Y-13175246D01*
X15511491Y-13175246D02*
X15511491Y-13232388D01*
X15511491Y-13232388D02*
X15501967Y-13251436D01*
X15501967Y-13251436D02*
X15492443Y-13260960D01*
X15492443Y-13260960D02*
X15473396Y-13270484D01*
X15473396Y-13270484D02*
X15435301Y-13270484D01*
X15435301Y-13270484D02*
X15416253Y-13260960D01*
X15597205Y-13251436D02*
X15606729Y-13260960D01*
X15606729Y-13260960D02*
X15597205Y-13270484D01*
X15597205Y-13270484D02*
X15587682Y-13260960D01*
X15587682Y-13260960D02*
X15597205Y-13251436D01*
X15597205Y-13251436D02*
X15597205Y-13270484D01*
X15597205Y-13146674D02*
X15606729Y-13156198D01*
X15606729Y-13156198D02*
X15597205Y-13165722D01*
X15597205Y-13165722D02*
X15587682Y-13156198D01*
X15587682Y-13156198D02*
X15597205Y-13146674D01*
X15597205Y-13146674D02*
X15597205Y-13165722D01*
M02*
