M48
; DRILL file {KiCad 7.0.7} date 2023 September 17, Sunday 23:45:07
; FORMAT={-:-/ absolute / inch / decimal}
; #@! TF.CreationDate,2023-09-17T23:45:07-06:00
; #@! TF.GenerationSoftware,Kicad,Pcbnew,7.0.7
; #@! TF.FileFunction,Plated,1,2,PTH
FMAT,2
INCH
; #@! TA.AperFunction,Plated,PTH,ViaDrill
T1C0.0157
; #@! TA.AperFunction,Plated,PTH,ComponentDrill
T2C0.0181
; #@! TA.AperFunction,Plated,PTH,ComponentDrill
T3C0.0394
%
G90
G05
T1
X5.65Y-3.2
X5.65Y-3.4
X5.65Y-3.55
X6.25Y-3.2
X6.25Y-3.55
X6.25Y-3.9
X6.25Y-4.1
X6.25Y-4.25
T2
X5.7776Y-2.8457
X6.1224Y-2.8457
T3
X5.8Y-4.5244
X5.8Y-4.6244
X5.8Y-4.7244
X5.8Y-4.8244
X5.8Y-4.9244
X5.8Y-5.0244
X6.1Y-4.5244
X6.1Y-4.6244
X6.1Y-4.7244
X6.1Y-4.8244
X6.1Y-4.9244
X6.1Y-5.0244
T0
M30
