%TF.GenerationSoftware,KiCad,Pcbnew,7.0.7*%
%TF.CreationDate,2023-09-17T23:45:05-06:00*%
%TF.ProjectId,dra818-breakout,64726138-3138-42d6-9272-65616b6f7574,1*%
%TF.SameCoordinates,Original*%
%TF.FileFunction,Legend,Bot*%
%TF.FilePolarity,Positive*%
%FSLAX46Y46*%
G04 Gerber Fmt 4.6, Leading zero omitted, Abs format (unit mm)*
G04 Created by KiCad (PCBNEW 7.0.7) date 2023-09-17 23:45:05*
%MOMM*%
%LPD*%
G01*
G04 APERTURE LIST*
%ADD10C,0.150000*%
%ADD11C,0.010000*%
%ADD12C,0.120000*%
G04 APERTURE END LIST*
D10*
X155273333Y-112044819D02*
X155273333Y-112759104D01*
X155273333Y-112759104D02*
X155320952Y-112901961D01*
X155320952Y-112901961D02*
X155416190Y-112997200D01*
X155416190Y-112997200D02*
X155559047Y-113044819D01*
X155559047Y-113044819D02*
X155654285Y-113044819D01*
X154273333Y-113044819D02*
X154844761Y-113044819D01*
X154559047Y-113044819D02*
X154559047Y-112044819D01*
X154559047Y-112044819D02*
X154654285Y-112187676D01*
X154654285Y-112187676D02*
X154749523Y-112282914D01*
X154749523Y-112282914D02*
X154844761Y-112330533D01*
X147653333Y-112044819D02*
X147653333Y-112759104D01*
X147653333Y-112759104D02*
X147700952Y-112901961D01*
X147700952Y-112901961D02*
X147796190Y-112997200D01*
X147796190Y-112997200D02*
X147939047Y-113044819D01*
X147939047Y-113044819D02*
X148034285Y-113044819D01*
X147224761Y-112140057D02*
X147177142Y-112092438D01*
X147177142Y-112092438D02*
X147081904Y-112044819D01*
X147081904Y-112044819D02*
X146843809Y-112044819D01*
X146843809Y-112044819D02*
X146748571Y-112092438D01*
X146748571Y-112092438D02*
X146700952Y-112140057D01*
X146700952Y-112140057D02*
X146653333Y-112235295D01*
X146653333Y-112235295D02*
X146653333Y-112330533D01*
X146653333Y-112330533D02*
X146700952Y-112473390D01*
X146700952Y-112473390D02*
X147272380Y-113044819D01*
X147272380Y-113044819D02*
X146653333Y-113044819D01*
%TO.C,SYM1*%
D11*
X149653941Y-105949282D02*
X149685774Y-105961758D01*
X149722743Y-105978602D01*
X149722743Y-106465196D01*
X149676812Y-106511127D01*
X149666320Y-106521427D01*
X149637255Y-106544320D01*
X149607943Y-106551735D01*
X149564326Y-106548321D01*
X149546568Y-106546114D01*
X149500767Y-106541445D01*
X149468743Y-106539585D01*
X149459244Y-106539869D01*
X149420274Y-106542948D01*
X149373160Y-106548321D01*
X149358085Y-106550168D01*
X149320110Y-106550893D01*
X149292325Y-106539429D01*
X149260674Y-106511127D01*
X149214743Y-106465196D01*
X149214743Y-106205055D01*
X149215101Y-106128180D01*
X149216216Y-106054886D01*
X149217952Y-105996850D01*
X149220167Y-105958663D01*
X149222721Y-105944914D01*
X149223256Y-105944951D01*
X149241808Y-105951793D01*
X149273153Y-105966868D01*
X149315608Y-105988822D01*
X149319604Y-106217240D01*
X149323600Y-106445657D01*
X149410686Y-106445657D01*
X149414657Y-106195286D01*
X149415916Y-106127227D01*
X149417718Y-106054482D01*
X149419671Y-105996730D01*
X149421612Y-105958648D01*
X149423377Y-105944914D01*
X149423885Y-105944962D01*
X149441482Y-105950015D01*
X149473834Y-105960849D01*
X149519543Y-105976783D01*
X149519765Y-106196706D01*
X149519988Y-106234909D01*
X149521531Y-106309146D01*
X149524292Y-106371145D01*
X149527977Y-106415308D01*
X149532292Y-106436041D01*
X149547732Y-106447131D01*
X149579241Y-106450556D01*
X149613886Y-106445657D01*
X149617857Y-106195286D01*
X149619278Y-106131663D01*
X149622225Y-106056356D01*
X149626079Y-105997286D01*
X149630542Y-105958718D01*
X149635317Y-105944914D01*
X149653941Y-105949282D01*
G36*
X149653941Y-105949282D02*
G01*
X149685774Y-105961758D01*
X149722743Y-105978602D01*
X149722743Y-106465196D01*
X149676812Y-106511127D01*
X149666320Y-106521427D01*
X149637255Y-106544320D01*
X149607943Y-106551735D01*
X149564326Y-106548321D01*
X149546568Y-106546114D01*
X149500767Y-106541445D01*
X149468743Y-106539585D01*
X149459244Y-106539869D01*
X149420274Y-106542948D01*
X149373160Y-106548321D01*
X149358085Y-106550168D01*
X149320110Y-106550893D01*
X149292325Y-106539429D01*
X149260674Y-106511127D01*
X149214743Y-106465196D01*
X149214743Y-106205055D01*
X149215101Y-106128180D01*
X149216216Y-106054886D01*
X149217952Y-105996850D01*
X149220167Y-105958663D01*
X149222721Y-105944914D01*
X149223256Y-105944951D01*
X149241808Y-105951793D01*
X149273153Y-105966868D01*
X149315608Y-105988822D01*
X149319604Y-106217240D01*
X149323600Y-106445657D01*
X149410686Y-106445657D01*
X149414657Y-106195286D01*
X149415916Y-106127227D01*
X149417718Y-106054482D01*
X149419671Y-105996730D01*
X149421612Y-105958648D01*
X149423377Y-105944914D01*
X149423885Y-105944962D01*
X149441482Y-105950015D01*
X149473834Y-105960849D01*
X149519543Y-105976783D01*
X149519765Y-106196706D01*
X149519988Y-106234909D01*
X149521531Y-106309146D01*
X149524292Y-106371145D01*
X149527977Y-106415308D01*
X149532292Y-106436041D01*
X149547732Y-106447131D01*
X149579241Y-106450556D01*
X149613886Y-106445657D01*
X149617857Y-106195286D01*
X149619278Y-106131663D01*
X149622225Y-106056356D01*
X149626079Y-105997286D01*
X149630542Y-105958718D01*
X149635317Y-105944914D01*
X149653941Y-105949282D01*
G37*
X154265714Y-106235200D02*
X154265701Y-106250935D01*
X154264914Y-106321119D01*
X154262210Y-106370022D01*
X154256606Y-106404178D01*
X154247119Y-106430124D01*
X154232768Y-106454397D01*
X154229237Y-106459433D01*
X154191878Y-106499143D01*
X154149311Y-106529092D01*
X154127452Y-106538810D01*
X154048908Y-106555020D01*
X153971231Y-106544535D01*
X153899645Y-106508707D01*
X153839374Y-106448887D01*
X153834286Y-106440873D01*
X153817730Y-106394342D01*
X153806573Y-106329552D01*
X153801160Y-106254727D01*
X153801768Y-106185513D01*
X153948248Y-106185513D01*
X153949402Y-106281399D01*
X153949866Y-106287569D01*
X153956629Y-106340478D01*
X153968671Y-106374029D01*
X153989005Y-106397016D01*
X154023097Y-106418548D01*
X154056814Y-106419680D01*
X154091543Y-106394857D01*
X154097584Y-106388325D01*
X154109417Y-106368779D01*
X154116404Y-106340386D01*
X154119727Y-106296430D01*
X154120571Y-106230192D01*
X154119125Y-106168150D01*
X154111907Y-106109042D01*
X154097006Y-106071686D01*
X154072636Y-106052152D01*
X154037008Y-106046514D01*
X154023440Y-106047635D01*
X153985430Y-106068194D01*
X153960312Y-106114299D01*
X153948248Y-106185513D01*
X153801768Y-106185513D01*
X153801833Y-106178096D01*
X153808937Y-106107882D01*
X153822815Y-106052312D01*
X153840649Y-106015301D01*
X153890855Y-105957733D01*
X153958885Y-105921962D01*
X154042158Y-105909665D01*
X154064398Y-105910331D01*
X154129891Y-105923947D01*
X154183687Y-105958249D01*
X154233057Y-106017338D01*
X154235995Y-106021722D01*
X154249287Y-106045299D01*
X154257932Y-106071949D01*
X154262904Y-106108159D01*
X154265174Y-106160413D01*
X154265678Y-106230192D01*
X154265714Y-106235200D01*
G36*
X154265714Y-106235200D02*
G01*
X154265701Y-106250935D01*
X154264914Y-106321119D01*
X154262210Y-106370022D01*
X154256606Y-106404178D01*
X154247119Y-106430124D01*
X154232768Y-106454397D01*
X154229237Y-106459433D01*
X154191878Y-106499143D01*
X154149311Y-106529092D01*
X154127452Y-106538810D01*
X154048908Y-106555020D01*
X153971231Y-106544535D01*
X153899645Y-106508707D01*
X153839374Y-106448887D01*
X153834286Y-106440873D01*
X153817730Y-106394342D01*
X153806573Y-106329552D01*
X153801160Y-106254727D01*
X153801768Y-106185513D01*
X153948248Y-106185513D01*
X153949402Y-106281399D01*
X153949866Y-106287569D01*
X153956629Y-106340478D01*
X153968671Y-106374029D01*
X153989005Y-106397016D01*
X154023097Y-106418548D01*
X154056814Y-106419680D01*
X154091543Y-106394857D01*
X154097584Y-106388325D01*
X154109417Y-106368779D01*
X154116404Y-106340386D01*
X154119727Y-106296430D01*
X154120571Y-106230192D01*
X154119125Y-106168150D01*
X154111907Y-106109042D01*
X154097006Y-106071686D01*
X154072636Y-106052152D01*
X154037008Y-106046514D01*
X154023440Y-106047635D01*
X153985430Y-106068194D01*
X153960312Y-106114299D01*
X153948248Y-106185513D01*
X153801768Y-106185513D01*
X153801833Y-106178096D01*
X153808937Y-106107882D01*
X153822815Y-106052312D01*
X153840649Y-106015301D01*
X153890855Y-105957733D01*
X153958885Y-105921962D01*
X154042158Y-105909665D01*
X154064398Y-105910331D01*
X154129891Y-105923947D01*
X154183687Y-105958249D01*
X154233057Y-106017338D01*
X154235995Y-106021722D01*
X154249287Y-106045299D01*
X154257932Y-106071949D01*
X154262904Y-106108159D01*
X154265174Y-106160413D01*
X154265678Y-106230192D01*
X154265714Y-106235200D01*
G37*
X148140590Y-106252622D02*
X148140307Y-106291305D01*
X148136762Y-106367521D01*
X148127483Y-106423294D01*
X148110375Y-106464613D01*
X148083344Y-106497467D01*
X148044292Y-106527846D01*
X148019445Y-106541660D01*
X147979615Y-106550965D01*
X147923665Y-106550230D01*
X147892385Y-106547283D01*
X147854653Y-106538283D01*
X147824494Y-106518720D01*
X147789408Y-106482267D01*
X147784720Y-106476943D01*
X147753177Y-106435969D01*
X147738128Y-106400283D01*
X147734286Y-106357966D01*
X147734286Y-106295779D01*
X147777742Y-106312182D01*
X147809424Y-106331356D01*
X147836962Y-106376347D01*
X147842711Y-106390752D01*
X147874855Y-106431546D01*
X147918611Y-106452081D01*
X147966254Y-106450235D01*
X148010057Y-106423886D01*
X148025111Y-106407455D01*
X148038763Y-106382667D01*
X148034493Y-106360144D01*
X148009916Y-106336964D01*
X147962651Y-106310202D01*
X147890314Y-106276934D01*
X147741543Y-106211816D01*
X147737595Y-106147308D01*
X147739079Y-106106220D01*
X147836010Y-106106220D01*
X147843368Y-106131657D01*
X147876848Y-106158814D01*
X147937614Y-106189714D01*
X147947669Y-106194190D01*
X147995751Y-106215017D01*
X148031726Y-106229665D01*
X148048444Y-106235200D01*
X148050977Y-106231126D01*
X148051993Y-106206247D01*
X148048369Y-106166257D01*
X148039242Y-106127152D01*
X148010773Y-106077884D01*
X147969678Y-106050122D01*
X147920590Y-106046364D01*
X147868144Y-106069109D01*
X147853609Y-106080481D01*
X147836010Y-106106220D01*
X147739079Y-106106220D01*
X147739338Y-106099064D01*
X147761281Y-106038096D01*
X147788979Y-106004497D01*
X147846405Y-105966966D01*
X147914527Y-105948006D01*
X147984947Y-105949507D01*
X148049267Y-105973355D01*
X148063426Y-105982513D01*
X148095904Y-106010849D01*
X148118116Y-106046695D01*
X148131804Y-106095384D01*
X148138715Y-106162249D01*
X148139628Y-106206247D01*
X148140590Y-106252622D01*
G36*
X148140590Y-106252622D02*
G01*
X148140307Y-106291305D01*
X148136762Y-106367521D01*
X148127483Y-106423294D01*
X148110375Y-106464613D01*
X148083344Y-106497467D01*
X148044292Y-106527846D01*
X148019445Y-106541660D01*
X147979615Y-106550965D01*
X147923665Y-106550230D01*
X147892385Y-106547283D01*
X147854653Y-106538283D01*
X147824494Y-106518720D01*
X147789408Y-106482267D01*
X147784720Y-106476943D01*
X147753177Y-106435969D01*
X147738128Y-106400283D01*
X147734286Y-106357966D01*
X147734286Y-106295779D01*
X147777742Y-106312182D01*
X147809424Y-106331356D01*
X147836962Y-106376347D01*
X147842711Y-106390752D01*
X147874855Y-106431546D01*
X147918611Y-106452081D01*
X147966254Y-106450235D01*
X148010057Y-106423886D01*
X148025111Y-106407455D01*
X148038763Y-106382667D01*
X148034493Y-106360144D01*
X148009916Y-106336964D01*
X147962651Y-106310202D01*
X147890314Y-106276934D01*
X147741543Y-106211816D01*
X147737595Y-106147308D01*
X147739079Y-106106220D01*
X147836010Y-106106220D01*
X147843368Y-106131657D01*
X147876848Y-106158814D01*
X147937614Y-106189714D01*
X147947669Y-106194190D01*
X147995751Y-106215017D01*
X148031726Y-106229665D01*
X148048444Y-106235200D01*
X148050977Y-106231126D01*
X148051993Y-106206247D01*
X148048369Y-106166257D01*
X148039242Y-106127152D01*
X148010773Y-106077884D01*
X147969678Y-106050122D01*
X147920590Y-106046364D01*
X147868144Y-106069109D01*
X147853609Y-106080481D01*
X147836010Y-106106220D01*
X147739079Y-106106220D01*
X147739338Y-106099064D01*
X147761281Y-106038096D01*
X147788979Y-106004497D01*
X147846405Y-105966966D01*
X147914527Y-105948006D01*
X147984947Y-105949507D01*
X148049267Y-105973355D01*
X148063426Y-105982513D01*
X148095904Y-106010849D01*
X148118116Y-106046695D01*
X148131804Y-106095384D01*
X148138715Y-106162249D01*
X148139628Y-106206247D01*
X148140590Y-106252622D01*
G37*
X152431020Y-105917822D02*
X152498810Y-105949680D01*
X152554366Y-106004770D01*
X152565881Y-106022016D01*
X152575432Y-106041562D01*
X152582206Y-106066198D01*
X152586819Y-106100711D01*
X152589888Y-106149889D01*
X152592029Y-106218519D01*
X152593859Y-106311389D01*
X152598404Y-106569007D01*
X152560225Y-106554491D01*
X152525268Y-106541156D01*
X152499097Y-106528323D01*
X152482013Y-106511780D01*
X152472086Y-106486465D01*
X152467386Y-106447316D01*
X152465982Y-106389268D01*
X152465943Y-106307261D01*
X152465744Y-106241895D01*
X152464559Y-106179173D01*
X152461729Y-106136334D01*
X152456609Y-106108220D01*
X152448553Y-106089675D01*
X152436914Y-106075543D01*
X152408303Y-106055600D01*
X152360239Y-106048083D01*
X152312688Y-106067079D01*
X152309550Y-106069511D01*
X152299769Y-106080748D01*
X152292553Y-106098770D01*
X152287299Y-106128026D01*
X152283402Y-106172962D01*
X152280256Y-106238028D01*
X152277257Y-106327670D01*
X152270000Y-106567697D01*
X152208314Y-106540044D01*
X152146629Y-106512391D01*
X152146629Y-106293246D01*
X152146884Y-106233711D01*
X152149086Y-106150892D01*
X152154661Y-106089227D01*
X152164941Y-106043748D01*
X152181258Y-106009484D01*
X152204943Y-105981466D01*
X152237328Y-105954723D01*
X152283907Y-105927780D01*
X152357287Y-105910191D01*
X152431020Y-105917822D01*
G36*
X152431020Y-105917822D02*
G01*
X152498810Y-105949680D01*
X152554366Y-106004770D01*
X152565881Y-106022016D01*
X152575432Y-106041562D01*
X152582206Y-106066198D01*
X152586819Y-106100711D01*
X152589888Y-106149889D01*
X152592029Y-106218519D01*
X152593859Y-106311389D01*
X152598404Y-106569007D01*
X152560225Y-106554491D01*
X152525268Y-106541156D01*
X152499097Y-106528323D01*
X152482013Y-106511780D01*
X152472086Y-106486465D01*
X152467386Y-106447316D01*
X152465982Y-106389268D01*
X152465943Y-106307261D01*
X152465744Y-106241895D01*
X152464559Y-106179173D01*
X152461729Y-106136334D01*
X152456609Y-106108220D01*
X152448553Y-106089675D01*
X152436914Y-106075543D01*
X152408303Y-106055600D01*
X152360239Y-106048083D01*
X152312688Y-106067079D01*
X152309550Y-106069511D01*
X152299769Y-106080748D01*
X152292553Y-106098770D01*
X152287299Y-106128026D01*
X152283402Y-106172962D01*
X152280256Y-106238028D01*
X152277257Y-106327670D01*
X152270000Y-106567697D01*
X152208314Y-106540044D01*
X152146629Y-106512391D01*
X152146629Y-106293246D01*
X152146884Y-106233711D01*
X152149086Y-106150892D01*
X152154661Y-106089227D01*
X152164941Y-106043748D01*
X152181258Y-106009484D01*
X152204943Y-105981466D01*
X152237328Y-105954723D01*
X152283907Y-105927780D01*
X152357287Y-105910191D01*
X152431020Y-105917822D01*
G37*
X148482829Y-105951097D02*
X148542753Y-105973355D01*
X148567673Y-105990080D01*
X148592910Y-106014043D01*
X148610912Y-106044526D01*
X148622858Y-106086023D01*
X148629930Y-106143032D01*
X148633308Y-106220047D01*
X148634171Y-106321565D01*
X148634002Y-106374027D01*
X148633153Y-106445715D01*
X148631711Y-106502925D01*
X148629814Y-106540809D01*
X148627597Y-106554514D01*
X148613172Y-106549981D01*
X148584054Y-106537670D01*
X148583181Y-106537272D01*
X148568060Y-106529356D01*
X148557891Y-106518495D01*
X148551691Y-106499471D01*
X148548478Y-106467069D01*
X148547270Y-106416071D01*
X148547086Y-106341261D01*
X148546714Y-106293804D01*
X148542750Y-106204615D01*
X148533673Y-106139287D01*
X148518524Y-106094393D01*
X148496345Y-106066507D01*
X148466175Y-106052203D01*
X148461990Y-106051206D01*
X148405480Y-106050427D01*
X148361410Y-106075744D01*
X148330972Y-106126502D01*
X148325544Y-106141175D01*
X148313171Y-106173649D01*
X148306905Y-106188572D01*
X148294036Y-106186516D01*
X148265933Y-106175357D01*
X148239721Y-106156927D01*
X148227771Y-106122098D01*
X148231336Y-106097151D01*
X148253235Y-106046547D01*
X148288644Y-105999128D01*
X148330052Y-105966334D01*
X148347400Y-105958752D01*
X148413089Y-105946076D01*
X148482829Y-105951097D01*
G36*
X148482829Y-105951097D02*
G01*
X148542753Y-105973355D01*
X148567673Y-105990080D01*
X148592910Y-106014043D01*
X148610912Y-106044526D01*
X148622858Y-106086023D01*
X148629930Y-106143032D01*
X148633308Y-106220047D01*
X148634171Y-106321565D01*
X148634002Y-106374027D01*
X148633153Y-106445715D01*
X148631711Y-106502925D01*
X148629814Y-106540809D01*
X148627597Y-106554514D01*
X148613172Y-106549981D01*
X148584054Y-106537670D01*
X148583181Y-106537272D01*
X148568060Y-106529356D01*
X148557891Y-106518495D01*
X148551691Y-106499471D01*
X148548478Y-106467069D01*
X148547270Y-106416071D01*
X148547086Y-106341261D01*
X148546714Y-106293804D01*
X148542750Y-106204615D01*
X148533673Y-106139287D01*
X148518524Y-106094393D01*
X148496345Y-106066507D01*
X148466175Y-106052203D01*
X148461990Y-106051206D01*
X148405480Y-106050427D01*
X148361410Y-106075744D01*
X148330972Y-106126502D01*
X148325544Y-106141175D01*
X148313171Y-106173649D01*
X148306905Y-106188572D01*
X148294036Y-106186516D01*
X148265933Y-106175357D01*
X148239721Y-106156927D01*
X148227771Y-106122098D01*
X148231336Y-106097151D01*
X148253235Y-106046547D01*
X148288644Y-105999128D01*
X148330052Y-105966334D01*
X148347400Y-105958752D01*
X148413089Y-105946076D01*
X148482829Y-105951097D01*
G37*
X150230698Y-106249714D02*
X150229537Y-106306313D01*
X150221345Y-106383462D01*
X150203519Y-106441276D01*
X150173975Y-106485422D01*
X150130625Y-106521568D01*
X150089332Y-106542463D01*
X150019987Y-106554090D01*
X149950736Y-106541377D01*
X149888145Y-106505945D01*
X149838779Y-106449418D01*
X149832818Y-106438995D01*
X149824945Y-106420733D01*
X149819106Y-106397429D01*
X149814999Y-106365085D01*
X149812325Y-106319704D01*
X149810781Y-106257287D01*
X149810734Y-106251748D01*
X149911429Y-106251748D01*
X149911772Y-106304577D01*
X149913942Y-106352362D01*
X149919307Y-106383209D01*
X149929217Y-106403935D01*
X149945021Y-106421356D01*
X149948724Y-106424705D01*
X149996299Y-106449419D01*
X150046635Y-106446890D01*
X150093517Y-106417288D01*
X150107477Y-106401953D01*
X150119160Y-106381622D01*
X150125686Y-106353514D01*
X150128524Y-106310550D01*
X150129143Y-106245647D01*
X150128837Y-106196122D01*
X150126722Y-106147782D01*
X150121390Y-106116587D01*
X150111460Y-106095647D01*
X150095550Y-106078073D01*
X150086204Y-106070159D01*
X150037776Y-106048843D01*
X149987040Y-106052198D01*
X149942987Y-106080107D01*
X149933504Y-106091173D01*
X149921939Y-106112009D01*
X149915252Y-106141106D01*
X149912173Y-106185381D01*
X149911429Y-106251748D01*
X149810734Y-106251748D01*
X149810067Y-106173837D01*
X149809883Y-106065358D01*
X149809829Y-105728601D01*
X149857000Y-105748362D01*
X149869472Y-105753770D01*
X149889324Y-105765985D01*
X149900687Y-105784482D01*
X149906933Y-105816829D01*
X149911429Y-105870593D01*
X149915535Y-105918866D01*
X149920963Y-105950557D01*
X149928739Y-105962383D01*
X149940457Y-105959212D01*
X149970318Y-105948067D01*
X150023684Y-105945304D01*
X150081093Y-105955625D01*
X150130625Y-105977861D01*
X150157876Y-105998443D01*
X150192865Y-106038600D01*
X150215274Y-106090086D01*
X150227190Y-106158568D01*
X150230542Y-106245647D01*
X150230698Y-106249714D01*
G36*
X150230698Y-106249714D02*
G01*
X150229537Y-106306313D01*
X150221345Y-106383462D01*
X150203519Y-106441276D01*
X150173975Y-106485422D01*
X150130625Y-106521568D01*
X150089332Y-106542463D01*
X150019987Y-106554090D01*
X149950736Y-106541377D01*
X149888145Y-106505945D01*
X149838779Y-106449418D01*
X149832818Y-106438995D01*
X149824945Y-106420733D01*
X149819106Y-106397429D01*
X149814999Y-106365085D01*
X149812325Y-106319704D01*
X149810781Y-106257287D01*
X149810734Y-106251748D01*
X149911429Y-106251748D01*
X149911772Y-106304577D01*
X149913942Y-106352362D01*
X149919307Y-106383209D01*
X149929217Y-106403935D01*
X149945021Y-106421356D01*
X149948724Y-106424705D01*
X149996299Y-106449419D01*
X150046635Y-106446890D01*
X150093517Y-106417288D01*
X150107477Y-106401953D01*
X150119160Y-106381622D01*
X150125686Y-106353514D01*
X150128524Y-106310550D01*
X150129143Y-106245647D01*
X150128837Y-106196122D01*
X150126722Y-106147782D01*
X150121390Y-106116587D01*
X150111460Y-106095647D01*
X150095550Y-106078073D01*
X150086204Y-106070159D01*
X150037776Y-106048843D01*
X149987040Y-106052198D01*
X149942987Y-106080107D01*
X149933504Y-106091173D01*
X149921939Y-106112009D01*
X149915252Y-106141106D01*
X149912173Y-106185381D01*
X149911429Y-106251748D01*
X149810734Y-106251748D01*
X149810067Y-106173837D01*
X149809883Y-106065358D01*
X149809829Y-105728601D01*
X149857000Y-105748362D01*
X149869472Y-105753770D01*
X149889324Y-105765985D01*
X149900687Y-105784482D01*
X149906933Y-105816829D01*
X149911429Y-105870593D01*
X149915535Y-105918866D01*
X149920963Y-105950557D01*
X149928739Y-105962383D01*
X149940457Y-105959212D01*
X149970318Y-105948067D01*
X150023684Y-105945304D01*
X150081093Y-105955625D01*
X150130625Y-105977861D01*
X150157876Y-105998443D01*
X150192865Y-106038600D01*
X150215274Y-106090086D01*
X150227190Y-106158568D01*
X150230542Y-106245647D01*
X150230698Y-106249714D01*
G37*
X151678543Y-105749444D02*
X151725714Y-105769342D01*
X151725714Y-106166509D01*
X151725519Y-106269498D01*
X151724998Y-106362141D01*
X151724199Y-106440700D01*
X151723172Y-106501439D01*
X151721963Y-106540623D01*
X151720623Y-106554514D01*
X151720099Y-106554468D01*
X151702287Y-106549420D01*
X151669823Y-106538580D01*
X151624114Y-106522646D01*
X151624114Y-106318173D01*
X151623824Y-106237832D01*
X151622474Y-106179562D01*
X151619369Y-106139909D01*
X151613812Y-106113618D01*
X151605107Y-106095436D01*
X151592556Y-106080107D01*
X151583999Y-106071955D01*
X151537728Y-106049375D01*
X151486728Y-106051375D01*
X151439993Y-106078073D01*
X151433189Y-106084698D01*
X151422293Y-106098456D01*
X151414836Y-106116642D01*
X151410169Y-106144177D01*
X151407642Y-106185981D01*
X151406602Y-106246973D01*
X151406400Y-106332073D01*
X151406303Y-106375234D01*
X151405674Y-106446224D01*
X151404556Y-106503076D01*
X151403063Y-106540828D01*
X151401309Y-106554514D01*
X151400785Y-106554468D01*
X151382973Y-106549420D01*
X151350509Y-106538580D01*
X151304800Y-106522646D01*
X151304823Y-106317237D01*
X151304857Y-106298951D01*
X151306778Y-106203626D01*
X151312678Y-106131543D01*
X151324001Y-106077813D01*
X151342187Y-106037549D01*
X151368679Y-106005861D01*
X151404918Y-105977861D01*
X151440263Y-105960333D01*
X151496773Y-105946785D01*
X151552356Y-105946015D01*
X151595086Y-105959195D01*
X151598298Y-105961015D01*
X151608205Y-105960820D01*
X151614975Y-105945572D01*
X151619861Y-105910613D01*
X151624114Y-105851289D01*
X151631371Y-105729547D01*
X151678543Y-105749444D01*
G36*
X151678543Y-105749444D02*
G01*
X151725714Y-105769342D01*
X151725714Y-106166509D01*
X151725519Y-106269498D01*
X151724998Y-106362141D01*
X151724199Y-106440700D01*
X151723172Y-106501439D01*
X151721963Y-106540623D01*
X151720623Y-106554514D01*
X151720099Y-106554468D01*
X151702287Y-106549420D01*
X151669823Y-106538580D01*
X151624114Y-106522646D01*
X151624114Y-106318173D01*
X151623824Y-106237832D01*
X151622474Y-106179562D01*
X151619369Y-106139909D01*
X151613812Y-106113618D01*
X151605107Y-106095436D01*
X151592556Y-106080107D01*
X151583999Y-106071955D01*
X151537728Y-106049375D01*
X151486728Y-106051375D01*
X151439993Y-106078073D01*
X151433189Y-106084698D01*
X151422293Y-106098456D01*
X151414836Y-106116642D01*
X151410169Y-106144177D01*
X151407642Y-106185981D01*
X151406602Y-106246973D01*
X151406400Y-106332073D01*
X151406303Y-106375234D01*
X151405674Y-106446224D01*
X151404556Y-106503076D01*
X151403063Y-106540828D01*
X151401309Y-106554514D01*
X151400785Y-106554468D01*
X151382973Y-106549420D01*
X151350509Y-106538580D01*
X151304800Y-106522646D01*
X151304823Y-106317237D01*
X151304857Y-106298951D01*
X151306778Y-106203626D01*
X151312678Y-106131543D01*
X151324001Y-106077813D01*
X151342187Y-106037549D01*
X151368679Y-106005861D01*
X151404918Y-105977861D01*
X151440263Y-105960333D01*
X151496773Y-105946785D01*
X151552356Y-105946015D01*
X151595086Y-105959195D01*
X151598298Y-105961015D01*
X151608205Y-105960820D01*
X151614975Y-105945572D01*
X151619861Y-105910613D01*
X151624114Y-105851289D01*
X151631371Y-105729547D01*
X151678543Y-105749444D01*
G37*
X151089483Y-105960569D02*
X151139376Y-105989661D01*
X151161325Y-106012327D01*
X151203504Y-106080082D01*
X151217714Y-106153950D01*
X151217714Y-106204770D01*
X151170999Y-106185128D01*
X151138692Y-106165308D01*
X151113231Y-106124160D01*
X151110616Y-106115675D01*
X151082478Y-106072451D01*
X151040067Y-106049103D01*
X150991370Y-106048100D01*
X150944373Y-106071914D01*
X150937357Y-106078056D01*
X150913893Y-106104745D01*
X150910019Y-106128014D01*
X150927768Y-106150862D01*
X150969179Y-106176287D01*
X151036286Y-106207288D01*
X151040824Y-106209252D01*
X151115322Y-106243990D01*
X151166203Y-106274763D01*
X151197525Y-106305488D01*
X151213343Y-106340082D01*
X151217714Y-106382462D01*
X151211986Y-106429446D01*
X151183062Y-106489585D01*
X151132178Y-106532788D01*
X151095374Y-106545759D01*
X151043434Y-106552856D01*
X150992999Y-106551340D01*
X150956983Y-106540632D01*
X150953158Y-106537966D01*
X150942998Y-106519337D01*
X150950048Y-106486505D01*
X150962297Y-106460735D01*
X150981939Y-106450006D01*
X151019191Y-106450539D01*
X151070908Y-106447462D01*
X151104701Y-106426212D01*
X151116114Y-106386877D01*
X151116104Y-106385747D01*
X151109187Y-106362913D01*
X151085659Y-106341963D01*
X151039914Y-106317815D01*
X150977704Y-106288741D01*
X150936499Y-106272925D01*
X150912712Y-106273944D01*
X150901597Y-106294837D01*
X150898408Y-106338641D01*
X150898400Y-106408393D01*
X150898044Y-106451452D01*
X150896413Y-106504626D01*
X150893761Y-106541022D01*
X150890422Y-106554514D01*
X150889530Y-106554423D01*
X150870237Y-106547110D01*
X150838284Y-106531678D01*
X150794124Y-106508842D01*
X150799371Y-106303078D01*
X150799736Y-106289432D01*
X150803904Y-106193651D01*
X150811268Y-106121462D01*
X150823330Y-106068058D01*
X150841593Y-106028633D01*
X150867560Y-105998380D01*
X150902733Y-105972493D01*
X150903384Y-105972087D01*
X150960256Y-105950968D01*
X151026033Y-105947400D01*
X151089483Y-105960569D01*
G36*
X151089483Y-105960569D02*
G01*
X151139376Y-105989661D01*
X151161325Y-106012327D01*
X151203504Y-106080082D01*
X151217714Y-106153950D01*
X151217714Y-106204770D01*
X151170999Y-106185128D01*
X151138692Y-106165308D01*
X151113231Y-106124160D01*
X151110616Y-106115675D01*
X151082478Y-106072451D01*
X151040067Y-106049103D01*
X150991370Y-106048100D01*
X150944373Y-106071914D01*
X150937357Y-106078056D01*
X150913893Y-106104745D01*
X150910019Y-106128014D01*
X150927768Y-106150862D01*
X150969179Y-106176287D01*
X151036286Y-106207288D01*
X151040824Y-106209252D01*
X151115322Y-106243990D01*
X151166203Y-106274763D01*
X151197525Y-106305488D01*
X151213343Y-106340082D01*
X151217714Y-106382462D01*
X151211986Y-106429446D01*
X151183062Y-106489585D01*
X151132178Y-106532788D01*
X151095374Y-106545759D01*
X151043434Y-106552856D01*
X150992999Y-106551340D01*
X150956983Y-106540632D01*
X150953158Y-106537966D01*
X150942998Y-106519337D01*
X150950048Y-106486505D01*
X150962297Y-106460735D01*
X150981939Y-106450006D01*
X151019191Y-106450539D01*
X151070908Y-106447462D01*
X151104701Y-106426212D01*
X151116114Y-106386877D01*
X151116104Y-106385747D01*
X151109187Y-106362913D01*
X151085659Y-106341963D01*
X151039914Y-106317815D01*
X150977704Y-106288741D01*
X150936499Y-106272925D01*
X150912712Y-106273944D01*
X150901597Y-106294837D01*
X150898408Y-106338641D01*
X150898400Y-106408393D01*
X150898044Y-106451452D01*
X150896413Y-106504626D01*
X150893761Y-106541022D01*
X150890422Y-106554514D01*
X150889530Y-106554423D01*
X150870237Y-106547110D01*
X150838284Y-106531678D01*
X150794124Y-106508842D01*
X150799371Y-106303078D01*
X150799736Y-106289432D01*
X150803904Y-106193651D01*
X150811268Y-106121462D01*
X150823330Y-106068058D01*
X150841593Y-106028633D01*
X150867560Y-105998380D01*
X150902733Y-105972493D01*
X150903384Y-105972087D01*
X150960256Y-105950968D01*
X151026033Y-105947400D01*
X151089483Y-105960569D01*
G37*
X151113933Y-101242371D02*
X151189856Y-101242865D01*
X151244491Y-101244135D01*
X151281500Y-101246547D01*
X151304547Y-101250467D01*
X151317296Y-101256262D01*
X151323411Y-101264299D01*
X151326556Y-101274943D01*
X151326646Y-101275325D01*
X151331814Y-101300347D01*
X151341209Y-101348681D01*
X151353867Y-101415260D01*
X151368825Y-101495014D01*
X151385119Y-101582875D01*
X151386448Y-101590064D01*
X151402691Y-101675340D01*
X151417805Y-101750242D01*
X151430808Y-101810219D01*
X151440715Y-101850717D01*
X151446544Y-101867184D01*
X151446575Y-101867210D01*
X151464943Y-101876320D01*
X151502640Y-101891457D01*
X151551543Y-101909358D01*
X151554297Y-101910330D01*
X151616817Y-101933959D01*
X151689543Y-101963595D01*
X151757294Y-101993062D01*
X151868703Y-102043626D01*
X152115399Y-101875160D01*
X152132775Y-101863311D01*
X152207202Y-101812947D01*
X152273614Y-101768612D01*
X152328039Y-101732916D01*
X152366506Y-101708471D01*
X152385042Y-101697889D01*
X152397743Y-101700315D01*
X152426579Y-101719110D01*
X152471143Y-101756330D01*
X152532670Y-101813020D01*
X152612398Y-101890227D01*
X152619532Y-101897255D01*
X152682796Y-101960222D01*
X152738990Y-102017268D01*
X152784677Y-102064817D01*
X152816414Y-102099297D01*
X152830764Y-102117131D01*
X152830810Y-102117217D01*
X152832633Y-102130795D01*
X152825910Y-102152820D01*
X152808946Y-102186304D01*
X152780044Y-102234261D01*
X152737508Y-102299704D01*
X152679644Y-102385645D01*
X152669783Y-102400151D01*
X152619913Y-102473635D01*
X152575905Y-102538687D01*
X152540380Y-102591417D01*
X152515959Y-102627936D01*
X152505264Y-102644356D01*
X152504458Y-102647834D01*
X152509518Y-102673785D01*
X152524677Y-102716159D01*
X152547463Y-102767728D01*
X152578429Y-102835170D01*
X152613004Y-102915195D01*
X152642366Y-102987629D01*
X152649645Y-103006377D01*
X152668710Y-103054246D01*
X152682715Y-103087596D01*
X152689041Y-103100114D01*
X152696025Y-103101050D01*
X152727413Y-103106461D01*
X152778787Y-103115806D01*
X152844802Y-103128069D01*
X152920113Y-103142232D01*
X152999375Y-103157280D01*
X153077243Y-103172195D01*
X153148370Y-103185961D01*
X153207412Y-103197562D01*
X153249022Y-103205980D01*
X153267857Y-103210199D01*
X153270980Y-103211389D01*
X153278591Y-103217805D01*
X153284254Y-103231465D01*
X153288251Y-103255999D01*
X153290866Y-103295038D01*
X153292384Y-103352213D01*
X153293086Y-103431154D01*
X153293257Y-103535492D01*
X153293257Y-103852799D01*
X153217057Y-103867839D01*
X153207840Y-103869642D01*
X153158891Y-103878980D01*
X153091205Y-103891669D01*
X153012478Y-103906273D01*
X152930400Y-103921355D01*
X152898078Y-103927422D01*
X152825855Y-103942181D01*
X152765666Y-103956137D01*
X152723040Y-103967952D01*
X152703510Y-103976287D01*
X152694660Y-103989905D01*
X152678548Y-104025938D01*
X152662065Y-104072572D01*
X152656263Y-104090034D01*
X152634906Y-104147358D01*
X152607359Y-104215201D01*
X152578107Y-104282355D01*
X152562463Y-104317430D01*
X152540174Y-104369822D01*
X152524857Y-104409058D01*
X152519162Y-104428563D01*
X152519478Y-104430036D01*
X152530281Y-104450729D01*
X152554638Y-104490665D01*
X152590081Y-104545972D01*
X152634136Y-104612781D01*
X152684332Y-104687220D01*
X152849501Y-104929623D01*
X152632503Y-105146983D01*
X152611516Y-105167899D01*
X152547342Y-105230505D01*
X152489990Y-105284495D01*
X152442820Y-105326826D01*
X152409192Y-105354457D01*
X152392467Y-105364343D01*
X152374303Y-105356821D01*
X152336265Y-105335227D01*
X152282726Y-105302151D01*
X152217884Y-105260191D01*
X152145940Y-105211943D01*
X152075275Y-105164291D01*
X152011526Y-105122328D01*
X151959513Y-105089165D01*
X151923279Y-105067378D01*
X151906867Y-105059543D01*
X151905905Y-105059614D01*
X151884103Y-105067338D01*
X151845440Y-105085323D01*
X151797612Y-105110013D01*
X151797110Y-105110284D01*
X151733587Y-105142099D01*
X151690060Y-105157642D01*
X151663052Y-105157685D01*
X151649090Y-105143000D01*
X151643180Y-105128544D01*
X151627229Y-105089831D01*
X151602660Y-105030316D01*
X151570779Y-104953165D01*
X151532893Y-104861541D01*
X151490310Y-104758607D01*
X151444337Y-104647526D01*
X151402667Y-104546472D01*
X151360268Y-104442780D01*
X151322756Y-104350119D01*
X151291388Y-104271642D01*
X151267425Y-104210500D01*
X151252123Y-104169843D01*
X151246743Y-104152825D01*
X151257018Y-104137219D01*
X151285563Y-104111162D01*
X151325971Y-104080887D01*
X151422979Y-104001684D01*
X151509793Y-103900475D01*
X151573322Y-103789116D01*
X151613177Y-103670893D01*
X151628965Y-103549095D01*
X151620296Y-103427010D01*
X151586778Y-103307925D01*
X151528021Y-103195129D01*
X151443632Y-103091911D01*
X151399631Y-103051713D01*
X151294211Y-102980638D01*
X151181410Y-102934301D01*
X151064525Y-102911599D01*
X150946853Y-102911428D01*
X150831690Y-102932687D01*
X150722335Y-102974270D01*
X150622083Y-103035076D01*
X150534233Y-103114001D01*
X150462080Y-103209941D01*
X150408922Y-103321795D01*
X150378057Y-103448457D01*
X150372392Y-103509507D01*
X150380185Y-103641776D01*
X150415284Y-103767266D01*
X150476649Y-103883759D01*
X150563243Y-103989039D01*
X150674029Y-104080887D01*
X150712931Y-104109930D01*
X150742104Y-104136272D01*
X150753257Y-104152800D01*
X150748810Y-104167209D01*
X150734378Y-104205815D01*
X150711173Y-104265201D01*
X150680452Y-104342215D01*
X150643474Y-104433703D01*
X150601496Y-104536516D01*
X150555778Y-104647502D01*
X150514178Y-104748072D01*
X150471222Y-104851947D01*
X150432829Y-104944819D01*
X150400305Y-105023525D01*
X150374958Y-105084899D01*
X150358095Y-105125779D01*
X150351025Y-105143000D01*
X150350943Y-105143204D01*
X150336798Y-105157745D01*
X150309659Y-105157579D01*
X150266023Y-105141927D01*
X150202388Y-105110013D01*
X150197379Y-105107326D01*
X150150125Y-105083150D01*
X150112811Y-105066037D01*
X150093133Y-105059543D01*
X150077005Y-105067218D01*
X150040959Y-105088871D01*
X149989092Y-105121928D01*
X149925445Y-105163810D01*
X149854060Y-105211943D01*
X149783724Y-105259131D01*
X149718670Y-105301267D01*
X149664820Y-105334578D01*
X149626374Y-105356469D01*
X149607534Y-105364343D01*
X149604325Y-105363343D01*
X149581954Y-105347584D01*
X149543733Y-105315033D01*
X149493021Y-105268733D01*
X149433181Y-105211726D01*
X149367571Y-105147058D01*
X149150648Y-104929772D01*
X149319601Y-104681253D01*
X149488553Y-104432733D01*
X149437183Y-104321595D01*
X149437031Y-104321266D01*
X149406183Y-104250418D01*
X149374661Y-104171523D01*
X149349266Y-104101600D01*
X149345423Y-104090322D01*
X149326047Y-104037967D01*
X149308574Y-103997283D01*
X149296388Y-103976287D01*
X149291426Y-103973322D01*
X149261634Y-103963375D01*
X149211047Y-103950505D01*
X149145194Y-103936053D01*
X149069600Y-103921355D01*
X149046957Y-103917210D01*
X148965038Y-103902116D01*
X148888600Y-103887899D01*
X148825337Y-103875995D01*
X148782943Y-103867839D01*
X148706743Y-103852799D01*
X148706743Y-103535492D01*
X148706760Y-103496476D01*
X148707082Y-103401292D01*
X148708033Y-103330255D01*
X148709896Y-103279734D01*
X148712955Y-103246098D01*
X148717494Y-103225718D01*
X148723795Y-103214962D01*
X148732143Y-103210199D01*
X148740224Y-103208270D01*
X148773172Y-103201445D01*
X148825736Y-103191022D01*
X148892569Y-103178018D01*
X148968328Y-103163449D01*
X149047665Y-103148333D01*
X149125237Y-103133685D01*
X149195698Y-103120523D01*
X149253702Y-103109863D01*
X149293904Y-103102721D01*
X149310959Y-103100114D01*
X149312112Y-103098541D01*
X149321385Y-103078119D01*
X149337432Y-103039045D01*
X149357635Y-102987629D01*
X149385672Y-102918353D01*
X149420186Y-102838290D01*
X149452538Y-102767728D01*
X149459952Y-102751889D01*
X149480755Y-102702293D01*
X149493219Y-102664038D01*
X149494863Y-102644356D01*
X149494015Y-102642962D01*
X149480548Y-102622420D01*
X149453850Y-102582516D01*
X149416539Y-102527140D01*
X149371234Y-102460177D01*
X149320552Y-102385517D01*
X149263445Y-102300692D01*
X149220607Y-102234800D01*
X149191460Y-102186478D01*
X149174317Y-102152733D01*
X149167495Y-102130572D01*
X149169306Y-102117002D01*
X149169915Y-102115984D01*
X149186297Y-102096210D01*
X149219695Y-102060175D01*
X149266671Y-102011451D01*
X149323786Y-101953612D01*
X149387603Y-101890227D01*
X149453802Y-101825905D01*
X149518648Y-101765447D01*
X149566299Y-101724655D01*
X149597990Y-101702484D01*
X149614958Y-101697889D01*
X149617175Y-101698921D01*
X149640524Y-101712837D01*
X149682912Y-101740030D01*
X149740369Y-101777889D01*
X149808923Y-101823803D01*
X149884601Y-101875160D01*
X150131298Y-102043626D01*
X150242706Y-101993062D01*
X150245943Y-101991597D01*
X150314343Y-101961965D01*
X150386907Y-101932493D01*
X150448457Y-101909358D01*
X150448729Y-101909262D01*
X150497595Y-101891367D01*
X150535212Y-101876253D01*
X150553457Y-101867184D01*
X150553752Y-101866855D01*
X150559946Y-101848282D01*
X150570139Y-101806045D01*
X150583348Y-101744696D01*
X150598590Y-101668789D01*
X150614881Y-101582875D01*
X150615449Y-101579796D01*
X150631713Y-101492128D01*
X150646608Y-101412741D01*
X150659171Y-101346701D01*
X150668438Y-101299079D01*
X150673444Y-101274943D01*
X150673764Y-101273605D01*
X150677060Y-101263273D01*
X150683738Y-101255506D01*
X150697462Y-101249940D01*
X150721895Y-101246207D01*
X150760702Y-101243942D01*
X150817546Y-101242778D01*
X150896090Y-101242348D01*
X151000000Y-101242286D01*
X151013056Y-101242286D01*
X151113933Y-101242371D01*
G36*
X151113933Y-101242371D02*
G01*
X151189856Y-101242865D01*
X151244491Y-101244135D01*
X151281500Y-101246547D01*
X151304547Y-101250467D01*
X151317296Y-101256262D01*
X151323411Y-101264299D01*
X151326556Y-101274943D01*
X151326646Y-101275325D01*
X151331814Y-101300347D01*
X151341209Y-101348681D01*
X151353867Y-101415260D01*
X151368825Y-101495014D01*
X151385119Y-101582875D01*
X151386448Y-101590064D01*
X151402691Y-101675340D01*
X151417805Y-101750242D01*
X151430808Y-101810219D01*
X151440715Y-101850717D01*
X151446544Y-101867184D01*
X151446575Y-101867210D01*
X151464943Y-101876320D01*
X151502640Y-101891457D01*
X151551543Y-101909358D01*
X151554297Y-101910330D01*
X151616817Y-101933959D01*
X151689543Y-101963595D01*
X151757294Y-101993062D01*
X151868703Y-102043626D01*
X152115399Y-101875160D01*
X152132775Y-101863311D01*
X152207202Y-101812947D01*
X152273614Y-101768612D01*
X152328039Y-101732916D01*
X152366506Y-101708471D01*
X152385042Y-101697889D01*
X152397743Y-101700315D01*
X152426579Y-101719110D01*
X152471143Y-101756330D01*
X152532670Y-101813020D01*
X152612398Y-101890227D01*
X152619532Y-101897255D01*
X152682796Y-101960222D01*
X152738990Y-102017268D01*
X152784677Y-102064817D01*
X152816414Y-102099297D01*
X152830764Y-102117131D01*
X152830810Y-102117217D01*
X152832633Y-102130795D01*
X152825910Y-102152820D01*
X152808946Y-102186304D01*
X152780044Y-102234261D01*
X152737508Y-102299704D01*
X152679644Y-102385645D01*
X152669783Y-102400151D01*
X152619913Y-102473635D01*
X152575905Y-102538687D01*
X152540380Y-102591417D01*
X152515959Y-102627936D01*
X152505264Y-102644356D01*
X152504458Y-102647834D01*
X152509518Y-102673785D01*
X152524677Y-102716159D01*
X152547463Y-102767728D01*
X152578429Y-102835170D01*
X152613004Y-102915195D01*
X152642366Y-102987629D01*
X152649645Y-103006377D01*
X152668710Y-103054246D01*
X152682715Y-103087596D01*
X152689041Y-103100114D01*
X152696025Y-103101050D01*
X152727413Y-103106461D01*
X152778787Y-103115806D01*
X152844802Y-103128069D01*
X152920113Y-103142232D01*
X152999375Y-103157280D01*
X153077243Y-103172195D01*
X153148370Y-103185961D01*
X153207412Y-103197562D01*
X153249022Y-103205980D01*
X153267857Y-103210199D01*
X153270980Y-103211389D01*
X153278591Y-103217805D01*
X153284254Y-103231465D01*
X153288251Y-103255999D01*
X153290866Y-103295038D01*
X153292384Y-103352213D01*
X153293086Y-103431154D01*
X153293257Y-103535492D01*
X153293257Y-103852799D01*
X153217057Y-103867839D01*
X153207840Y-103869642D01*
X153158891Y-103878980D01*
X153091205Y-103891669D01*
X153012478Y-103906273D01*
X152930400Y-103921355D01*
X152898078Y-103927422D01*
X152825855Y-103942181D01*
X152765666Y-103956137D01*
X152723040Y-103967952D01*
X152703510Y-103976287D01*
X152694660Y-103989905D01*
X152678548Y-104025938D01*
X152662065Y-104072572D01*
X152656263Y-104090034D01*
X152634906Y-104147358D01*
X152607359Y-104215201D01*
X152578107Y-104282355D01*
X152562463Y-104317430D01*
X152540174Y-104369822D01*
X152524857Y-104409058D01*
X152519162Y-104428563D01*
X152519478Y-104430036D01*
X152530281Y-104450729D01*
X152554638Y-104490665D01*
X152590081Y-104545972D01*
X152634136Y-104612781D01*
X152684332Y-104687220D01*
X152849501Y-104929623D01*
X152632503Y-105146983D01*
X152611516Y-105167899D01*
X152547342Y-105230505D01*
X152489990Y-105284495D01*
X152442820Y-105326826D01*
X152409192Y-105354457D01*
X152392467Y-105364343D01*
X152374303Y-105356821D01*
X152336265Y-105335227D01*
X152282726Y-105302151D01*
X152217884Y-105260191D01*
X152145940Y-105211943D01*
X152075275Y-105164291D01*
X152011526Y-105122328D01*
X151959513Y-105089165D01*
X151923279Y-105067378D01*
X151906867Y-105059543D01*
X151905905Y-105059614D01*
X151884103Y-105067338D01*
X151845440Y-105085323D01*
X151797612Y-105110013D01*
X151797110Y-105110284D01*
X151733587Y-105142099D01*
X151690060Y-105157642D01*
X151663052Y-105157685D01*
X151649090Y-105143000D01*
X151643180Y-105128544D01*
X151627229Y-105089831D01*
X151602660Y-105030316D01*
X151570779Y-104953165D01*
X151532893Y-104861541D01*
X151490310Y-104758607D01*
X151444337Y-104647526D01*
X151402667Y-104546472D01*
X151360268Y-104442780D01*
X151322756Y-104350119D01*
X151291388Y-104271642D01*
X151267425Y-104210500D01*
X151252123Y-104169843D01*
X151246743Y-104152825D01*
X151257018Y-104137219D01*
X151285563Y-104111162D01*
X151325971Y-104080887D01*
X151422979Y-104001684D01*
X151509793Y-103900475D01*
X151573322Y-103789116D01*
X151613177Y-103670893D01*
X151628965Y-103549095D01*
X151620296Y-103427010D01*
X151586778Y-103307925D01*
X151528021Y-103195129D01*
X151443632Y-103091911D01*
X151399631Y-103051713D01*
X151294211Y-102980638D01*
X151181410Y-102934301D01*
X151064525Y-102911599D01*
X150946853Y-102911428D01*
X150831690Y-102932687D01*
X150722335Y-102974270D01*
X150622083Y-103035076D01*
X150534233Y-103114001D01*
X150462080Y-103209941D01*
X150408922Y-103321795D01*
X150378057Y-103448457D01*
X150372392Y-103509507D01*
X150380185Y-103641776D01*
X150415284Y-103767266D01*
X150476649Y-103883759D01*
X150563243Y-103989039D01*
X150674029Y-104080887D01*
X150712931Y-104109930D01*
X150742104Y-104136272D01*
X150753257Y-104152800D01*
X150748810Y-104167209D01*
X150734378Y-104205815D01*
X150711173Y-104265201D01*
X150680452Y-104342215D01*
X150643474Y-104433703D01*
X150601496Y-104536516D01*
X150555778Y-104647502D01*
X150514178Y-104748072D01*
X150471222Y-104851947D01*
X150432829Y-104944819D01*
X150400305Y-105023525D01*
X150374958Y-105084899D01*
X150358095Y-105125779D01*
X150351025Y-105143000D01*
X150350943Y-105143204D01*
X150336798Y-105157745D01*
X150309659Y-105157579D01*
X150266023Y-105141927D01*
X150202388Y-105110013D01*
X150197379Y-105107326D01*
X150150125Y-105083150D01*
X150112811Y-105066037D01*
X150093133Y-105059543D01*
X150077005Y-105067218D01*
X150040959Y-105088871D01*
X149989092Y-105121928D01*
X149925445Y-105163810D01*
X149854060Y-105211943D01*
X149783724Y-105259131D01*
X149718670Y-105301267D01*
X149664820Y-105334578D01*
X149626374Y-105356469D01*
X149607534Y-105364343D01*
X149604325Y-105363343D01*
X149581954Y-105347584D01*
X149543733Y-105315033D01*
X149493021Y-105268733D01*
X149433181Y-105211726D01*
X149367571Y-105147058D01*
X149150648Y-104929772D01*
X149319601Y-104681253D01*
X149488553Y-104432733D01*
X149437183Y-104321595D01*
X149437031Y-104321266D01*
X149406183Y-104250418D01*
X149374661Y-104171523D01*
X149349266Y-104101600D01*
X149345423Y-104090322D01*
X149326047Y-104037967D01*
X149308574Y-103997283D01*
X149296388Y-103976287D01*
X149291426Y-103973322D01*
X149261634Y-103963375D01*
X149211047Y-103950505D01*
X149145194Y-103936053D01*
X149069600Y-103921355D01*
X149046957Y-103917210D01*
X148965038Y-103902116D01*
X148888600Y-103887899D01*
X148825337Y-103875995D01*
X148782943Y-103867839D01*
X148706743Y-103852799D01*
X148706743Y-103535492D01*
X148706760Y-103496476D01*
X148707082Y-103401292D01*
X148708033Y-103330255D01*
X148709896Y-103279734D01*
X148712955Y-103246098D01*
X148717494Y-103225718D01*
X148723795Y-103214962D01*
X148732143Y-103210199D01*
X148740224Y-103208270D01*
X148773172Y-103201445D01*
X148825736Y-103191022D01*
X148892569Y-103178018D01*
X148968328Y-103163449D01*
X149047665Y-103148333D01*
X149125237Y-103133685D01*
X149195698Y-103120523D01*
X149253702Y-103109863D01*
X149293904Y-103102721D01*
X149310959Y-103100114D01*
X149312112Y-103098541D01*
X149321385Y-103078119D01*
X149337432Y-103039045D01*
X149357635Y-102987629D01*
X149385672Y-102918353D01*
X149420186Y-102838290D01*
X149452538Y-102767728D01*
X149459952Y-102751889D01*
X149480755Y-102702293D01*
X149493219Y-102664038D01*
X149494863Y-102644356D01*
X149494015Y-102642962D01*
X149480548Y-102622420D01*
X149453850Y-102582516D01*
X149416539Y-102527140D01*
X149371234Y-102460177D01*
X149320552Y-102385517D01*
X149263445Y-102300692D01*
X149220607Y-102234800D01*
X149191460Y-102186478D01*
X149174317Y-102152733D01*
X149167495Y-102130572D01*
X149169306Y-102117002D01*
X149169915Y-102115984D01*
X149186297Y-102096210D01*
X149219695Y-102060175D01*
X149266671Y-102011451D01*
X149323786Y-101953612D01*
X149387603Y-101890227D01*
X149453802Y-101825905D01*
X149518648Y-101765447D01*
X149566299Y-101724655D01*
X149597990Y-101702484D01*
X149614958Y-101697889D01*
X149617175Y-101698921D01*
X149640524Y-101712837D01*
X149682912Y-101740030D01*
X149740369Y-101777889D01*
X149808923Y-101823803D01*
X149884601Y-101875160D01*
X150131298Y-102043626D01*
X150242706Y-101993062D01*
X150245943Y-101991597D01*
X150314343Y-101961965D01*
X150386907Y-101932493D01*
X150448457Y-101909358D01*
X150448729Y-101909262D01*
X150497595Y-101891367D01*
X150535212Y-101876253D01*
X150553457Y-101867184D01*
X150553752Y-101866855D01*
X150559946Y-101848282D01*
X150570139Y-101806045D01*
X150583348Y-101744696D01*
X150598590Y-101668789D01*
X150614881Y-101582875D01*
X150615449Y-101579796D01*
X150631713Y-101492128D01*
X150646608Y-101412741D01*
X150659171Y-101346701D01*
X150668438Y-101299079D01*
X150673444Y-101274943D01*
X150673764Y-101273605D01*
X150677060Y-101263273D01*
X150683738Y-101255506D01*
X150697462Y-101249940D01*
X150721895Y-101246207D01*
X150760702Y-101243942D01*
X150817546Y-101242778D01*
X150896090Y-101242348D01*
X151000000Y-101242286D01*
X151013056Y-101242286D01*
X151113933Y-101242371D01*
G37*
X148967495Y-105946220D02*
X148998599Y-105954121D01*
X149027559Y-105973817D01*
X149064831Y-106010484D01*
X149088801Y-106036378D01*
X149113770Y-106069997D01*
X149125031Y-106101506D01*
X149127657Y-106141485D01*
X149127657Y-106206917D01*
X149083035Y-106183842D01*
X149047673Y-106155724D01*
X149023451Y-106117848D01*
X149019291Y-106107551D01*
X148987594Y-106067637D01*
X148943554Y-106047624D01*
X148895531Y-106049572D01*
X148851886Y-106075543D01*
X148833420Y-106096635D01*
X148822663Y-106123619D01*
X148834178Y-106147634D01*
X148869981Y-106171791D01*
X148932090Y-106199199D01*
X148941515Y-106202985D01*
X148998058Y-106227759D01*
X149046580Y-106252189D01*
X149077451Y-106271486D01*
X149108371Y-106305953D01*
X149128927Y-106360957D01*
X149126744Y-106419983D01*
X149102424Y-106475845D01*
X149056568Y-106521355D01*
X149019438Y-106540727D01*
X148947711Y-106554292D01*
X148907852Y-106552462D01*
X148870953Y-106542568D01*
X148856797Y-106521806D01*
X148862091Y-106487613D01*
X148863631Y-106483092D01*
X148875842Y-106459116D01*
X148896174Y-106450042D01*
X148934908Y-106450649D01*
X148962257Y-106451474D01*
X148994257Y-106444392D01*
X149016182Y-106423219D01*
X149028670Y-106397152D01*
X149030062Y-106369845D01*
X149029998Y-106369685D01*
X149013807Y-106354930D01*
X148979155Y-106333457D01*
X148934321Y-106309458D01*
X148887582Y-106287125D01*
X148847217Y-106270652D01*
X148821504Y-106264229D01*
X148817679Y-106270518D01*
X148812864Y-106300115D01*
X148809566Y-106348447D01*
X148808343Y-106409372D01*
X148808058Y-106451542D01*
X148806718Y-106504653D01*
X148804528Y-106541025D01*
X148801769Y-106554514D01*
X148787344Y-106549981D01*
X148758226Y-106537670D01*
X148721257Y-106520826D01*
X148721257Y-106304721D01*
X148721493Y-106249327D01*
X148723729Y-106165207D01*
X148729423Y-106102800D01*
X148739903Y-106057358D01*
X148756497Y-106024133D01*
X148780531Y-105998378D01*
X148813333Y-105975344D01*
X148855124Y-105956335D01*
X148932287Y-105944914D01*
X148967495Y-105946220D01*
G36*
X148967495Y-105946220D02*
G01*
X148998599Y-105954121D01*
X149027559Y-105973817D01*
X149064831Y-106010484D01*
X149088801Y-106036378D01*
X149113770Y-106069997D01*
X149125031Y-106101506D01*
X149127657Y-106141485D01*
X149127657Y-106206917D01*
X149083035Y-106183842D01*
X149047673Y-106155724D01*
X149023451Y-106117848D01*
X149019291Y-106107551D01*
X148987594Y-106067637D01*
X148943554Y-106047624D01*
X148895531Y-106049572D01*
X148851886Y-106075543D01*
X148833420Y-106096635D01*
X148822663Y-106123619D01*
X148834178Y-106147634D01*
X148869981Y-106171791D01*
X148932090Y-106199199D01*
X148941515Y-106202985D01*
X148998058Y-106227759D01*
X149046580Y-106252189D01*
X149077451Y-106271486D01*
X149108371Y-106305953D01*
X149128927Y-106360957D01*
X149126744Y-106419983D01*
X149102424Y-106475845D01*
X149056568Y-106521355D01*
X149019438Y-106540727D01*
X148947711Y-106554292D01*
X148907852Y-106552462D01*
X148870953Y-106542568D01*
X148856797Y-106521806D01*
X148862091Y-106487613D01*
X148863631Y-106483092D01*
X148875842Y-106459116D01*
X148896174Y-106450042D01*
X148934908Y-106450649D01*
X148962257Y-106451474D01*
X148994257Y-106444392D01*
X149016182Y-106423219D01*
X149028670Y-106397152D01*
X149030062Y-106369845D01*
X149029998Y-106369685D01*
X149013807Y-106354930D01*
X148979155Y-106333457D01*
X148934321Y-106309458D01*
X148887582Y-106287125D01*
X148847217Y-106270652D01*
X148821504Y-106264229D01*
X148817679Y-106270518D01*
X148812864Y-106300115D01*
X148809566Y-106348447D01*
X148808343Y-106409372D01*
X148808058Y-106451542D01*
X148806718Y-106504653D01*
X148804528Y-106541025D01*
X148801769Y-106554514D01*
X148787344Y-106549981D01*
X148758226Y-106537670D01*
X148721257Y-106520826D01*
X148721257Y-106304721D01*
X148721493Y-106249327D01*
X148723729Y-106165207D01*
X148729423Y-106102800D01*
X148739903Y-106057358D01*
X148756497Y-106024133D01*
X148780531Y-105998378D01*
X148813333Y-105975344D01*
X148855124Y-105956335D01*
X148932287Y-105944914D01*
X148967495Y-105946220D01*
G37*
X153162299Y-106194055D02*
X153157684Y-106304078D01*
X153155078Y-106327387D01*
X153135660Y-106410352D01*
X153100573Y-106473448D01*
X153047212Y-106521808D01*
X153044196Y-106523804D01*
X152976362Y-106552185D01*
X152905535Y-106554711D01*
X152837289Y-106533097D01*
X152777196Y-106489062D01*
X152730829Y-106424322D01*
X152730050Y-106422761D01*
X152714643Y-106382558D01*
X152703357Y-106336866D01*
X152697370Y-106293972D01*
X152697861Y-106262160D01*
X152706007Y-106249714D01*
X152713244Y-106250471D01*
X152747851Y-106264235D01*
X152787078Y-106289546D01*
X152820448Y-106318845D01*
X152837483Y-106344572D01*
X152855192Y-106379471D01*
X152891485Y-106411212D01*
X152933630Y-106423886D01*
X152949077Y-106420221D01*
X152979569Y-106401774D01*
X153006128Y-106376166D01*
X153017486Y-106352934D01*
X153017482Y-106352848D01*
X153004596Y-106342179D01*
X152970241Y-106322933D01*
X152919593Y-106297813D01*
X152857829Y-106269524D01*
X152857489Y-106269374D01*
X152790388Y-106239498D01*
X152745411Y-106217973D01*
X152718145Y-106201437D01*
X152704178Y-106186531D01*
X152699097Y-106169893D01*
X152698490Y-106148162D01*
X152702712Y-106107013D01*
X152846000Y-106107013D01*
X152860791Y-106119949D01*
X152897644Y-106139333D01*
X152898725Y-106139881D01*
X152942205Y-106160587D01*
X152981102Y-106177105D01*
X153005778Y-106184093D01*
X153015676Y-106174753D01*
X153017486Y-106142748D01*
X153009966Y-106102915D01*
X152983897Y-106066717D01*
X152946154Y-106047950D01*
X152904077Y-106049845D01*
X152865005Y-106075632D01*
X152849647Y-106093451D01*
X152846000Y-106107013D01*
X152702712Y-106107013D01*
X152703833Y-106096086D01*
X152730251Y-106025335D01*
X152774473Y-105969735D01*
X152831697Y-105931239D01*
X152897120Y-105911797D01*
X152965937Y-105913359D01*
X153033347Y-105937878D01*
X153094544Y-105987302D01*
X153128450Y-106036212D01*
X153152806Y-106106027D01*
X153156767Y-106142748D01*
X153162299Y-106194055D01*
G36*
X153162299Y-106194055D02*
G01*
X153157684Y-106304078D01*
X153155078Y-106327387D01*
X153135660Y-106410352D01*
X153100573Y-106473448D01*
X153047212Y-106521808D01*
X153044196Y-106523804D01*
X152976362Y-106552185D01*
X152905535Y-106554711D01*
X152837289Y-106533097D01*
X152777196Y-106489062D01*
X152730829Y-106424322D01*
X152730050Y-106422761D01*
X152714643Y-106382558D01*
X152703357Y-106336866D01*
X152697370Y-106293972D01*
X152697861Y-106262160D01*
X152706007Y-106249714D01*
X152713244Y-106250471D01*
X152747851Y-106264235D01*
X152787078Y-106289546D01*
X152820448Y-106318845D01*
X152837483Y-106344572D01*
X152855192Y-106379471D01*
X152891485Y-106411212D01*
X152933630Y-106423886D01*
X152949077Y-106420221D01*
X152979569Y-106401774D01*
X153006128Y-106376166D01*
X153017486Y-106352934D01*
X153017482Y-106352848D01*
X153004596Y-106342179D01*
X152970241Y-106322933D01*
X152919593Y-106297813D01*
X152857829Y-106269524D01*
X152857489Y-106269374D01*
X152790388Y-106239498D01*
X152745411Y-106217973D01*
X152718145Y-106201437D01*
X152704178Y-106186531D01*
X152699097Y-106169893D01*
X152698490Y-106148162D01*
X152702712Y-106107013D01*
X152846000Y-106107013D01*
X152860791Y-106119949D01*
X152897644Y-106139333D01*
X152898725Y-106139881D01*
X152942205Y-106160587D01*
X152981102Y-106177105D01*
X153005778Y-106184093D01*
X153015676Y-106174753D01*
X153017486Y-106142748D01*
X153009966Y-106102915D01*
X152983897Y-106066717D01*
X152946154Y-106047950D01*
X152904077Y-106049845D01*
X152865005Y-106075632D01*
X152849647Y-106093451D01*
X152846000Y-106107013D01*
X152702712Y-106107013D01*
X152703833Y-106096086D01*
X152730251Y-106025335D01*
X152774473Y-105969735D01*
X152831697Y-105931239D01*
X152897120Y-105911797D01*
X152965937Y-105913359D01*
X153033347Y-105937878D01*
X153094544Y-105987302D01*
X153128450Y-106036212D01*
X153152806Y-106106027D01*
X153156767Y-106142748D01*
X153162299Y-106194055D01*
G37*
X150607691Y-105966467D02*
X150612273Y-105969003D01*
X150649704Y-105998057D01*
X150683170Y-106035410D01*
X150689007Y-106043852D01*
X150700165Y-106063553D01*
X150708136Y-106086935D01*
X150713618Y-106119067D01*
X150717307Y-106165019D01*
X150719899Y-106229859D01*
X150722092Y-106318657D01*
X150722402Y-106333669D01*
X150723400Y-106430999D01*
X150721994Y-106499934D01*
X150718164Y-106540948D01*
X150711889Y-106554514D01*
X150692898Y-106550452D01*
X150660638Y-106538144D01*
X150653041Y-106534545D01*
X150641176Y-106526398D01*
X150632994Y-106513004D01*
X150627643Y-106489608D01*
X150624269Y-106451455D01*
X150622019Y-106393790D01*
X150620040Y-106311857D01*
X150619498Y-106287907D01*
X150617403Y-106212266D01*
X150614683Y-106159328D01*
X150610515Y-106124075D01*
X150604079Y-106101487D01*
X150594550Y-106086544D01*
X150581106Y-106074227D01*
X150541305Y-106052634D01*
X150492341Y-106048476D01*
X150448529Y-106064999D01*
X150417008Y-106099210D01*
X150404914Y-106148114D01*
X150404578Y-106161407D01*
X150397972Y-106185472D01*
X150378470Y-106189144D01*
X150340283Y-106174813D01*
X150331438Y-106170217D01*
X150307534Y-106143186D01*
X150307061Y-106102994D01*
X150329836Y-106047409D01*
X150350727Y-106017117D01*
X150404142Y-105974084D01*
X150470074Y-105949755D01*
X150540574Y-105946443D01*
X150607691Y-105966467D01*
G36*
X150607691Y-105966467D02*
G01*
X150612273Y-105969003D01*
X150649704Y-105998057D01*
X150683170Y-106035410D01*
X150689007Y-106043852D01*
X150700165Y-106063553D01*
X150708136Y-106086935D01*
X150713618Y-106119067D01*
X150717307Y-106165019D01*
X150719899Y-106229859D01*
X150722092Y-106318657D01*
X150722402Y-106333669D01*
X150723400Y-106430999D01*
X150721994Y-106499934D01*
X150718164Y-106540948D01*
X150711889Y-106554514D01*
X150692898Y-106550452D01*
X150660638Y-106538144D01*
X150653041Y-106534545D01*
X150641176Y-106526398D01*
X150632994Y-106513004D01*
X150627643Y-106489608D01*
X150624269Y-106451455D01*
X150622019Y-106393790D01*
X150620040Y-106311857D01*
X150619498Y-106287907D01*
X150617403Y-106212266D01*
X150614683Y-106159328D01*
X150610515Y-106124075D01*
X150604079Y-106101487D01*
X150594550Y-106086544D01*
X150581106Y-106074227D01*
X150541305Y-106052634D01*
X150492341Y-106048476D01*
X150448529Y-106064999D01*
X150417008Y-106099210D01*
X150404914Y-106148114D01*
X150404578Y-106161407D01*
X150397972Y-106185472D01*
X150378470Y-106189144D01*
X150340283Y-106174813D01*
X150331438Y-106170217D01*
X150307534Y-106143186D01*
X150307061Y-106102994D01*
X150329836Y-106047409D01*
X150350727Y-106017117D01*
X150404142Y-105974084D01*
X150470074Y-105949755D01*
X150540574Y-105946443D01*
X150607691Y-105966467D01*
G37*
X153709815Y-106301524D02*
X153711252Y-106413000D01*
X153711651Y-106445339D01*
X153712929Y-106553455D01*
X153713185Y-106636186D01*
X153711634Y-106696426D01*
X153707490Y-106737073D01*
X153699964Y-106761023D01*
X153688271Y-106771171D01*
X153671624Y-106770414D01*
X153649236Y-106761648D01*
X153620321Y-106747769D01*
X153614142Y-106744808D01*
X153588413Y-106730311D01*
X153574976Y-106713065D01*
X153569834Y-106684308D01*
X153568990Y-106635283D01*
X153568952Y-106547257D01*
X153478276Y-106547257D01*
X153422498Y-106544815D01*
X153378640Y-106534908D01*
X153342218Y-106514886D01*
X153339503Y-106512929D01*
X153302546Y-106479869D01*
X153276826Y-106439931D01*
X153260606Y-106387657D01*
X153252148Y-106317588D01*
X153250083Y-106238430D01*
X153394857Y-106238430D01*
X153394882Y-106251697D01*
X153396261Y-106311584D01*
X153400687Y-106350732D01*
X153409461Y-106376153D01*
X153423886Y-106394857D01*
X153424784Y-106395750D01*
X153460237Y-106419952D01*
X153494596Y-106417567D01*
X153533403Y-106388260D01*
X153542895Y-106378244D01*
X153556876Y-106357708D01*
X153564760Y-106330997D01*
X153568245Y-106290499D01*
X153569029Y-106228603D01*
X153568350Y-106191130D01*
X153560983Y-106122980D01*
X153544168Y-106078330D01*
X153516234Y-106053926D01*
X153475509Y-106046514D01*
X153458350Y-106048094D01*
X153428660Y-106063766D01*
X153409031Y-106098691D01*
X153398188Y-106155901D01*
X153394857Y-106238430D01*
X153250083Y-106238430D01*
X153249714Y-106224267D01*
X153250253Y-106156169D01*
X153252707Y-106104587D01*
X153258158Y-106068816D01*
X153267686Y-106042015D01*
X153282371Y-106017338D01*
X153295852Y-105998480D01*
X153344799Y-105947568D01*
X153400256Y-105919918D01*
X153469928Y-105911165D01*
X153549664Y-105919890D01*
X153618595Y-105951185D01*
X153673113Y-106006381D01*
X153677223Y-106012224D01*
X153686808Y-106027753D01*
X153694151Y-106045498D01*
X153699612Y-106069290D01*
X153703550Y-106102958D01*
X153706323Y-106150333D01*
X153708292Y-106215245D01*
X153708528Y-106228603D01*
X153709815Y-106301524D01*
G36*
X153709815Y-106301524D02*
G01*
X153711252Y-106413000D01*
X153711651Y-106445339D01*
X153712929Y-106553455D01*
X153713185Y-106636186D01*
X153711634Y-106696426D01*
X153707490Y-106737073D01*
X153699964Y-106761023D01*
X153688271Y-106771171D01*
X153671624Y-106770414D01*
X153649236Y-106761648D01*
X153620321Y-106747769D01*
X153614142Y-106744808D01*
X153588413Y-106730311D01*
X153574976Y-106713065D01*
X153569834Y-106684308D01*
X153568990Y-106635283D01*
X153568952Y-106547257D01*
X153478276Y-106547257D01*
X153422498Y-106544815D01*
X153378640Y-106534908D01*
X153342218Y-106514886D01*
X153339503Y-106512929D01*
X153302546Y-106479869D01*
X153276826Y-106439931D01*
X153260606Y-106387657D01*
X153252148Y-106317588D01*
X153250083Y-106238430D01*
X153394857Y-106238430D01*
X153394882Y-106251697D01*
X153396261Y-106311584D01*
X153400687Y-106350732D01*
X153409461Y-106376153D01*
X153423886Y-106394857D01*
X153424784Y-106395750D01*
X153460237Y-106419952D01*
X153494596Y-106417567D01*
X153533403Y-106388260D01*
X153542895Y-106378244D01*
X153556876Y-106357708D01*
X153564760Y-106330997D01*
X153568245Y-106290499D01*
X153569029Y-106228603D01*
X153568350Y-106191130D01*
X153560983Y-106122980D01*
X153544168Y-106078330D01*
X153516234Y-106053926D01*
X153475509Y-106046514D01*
X153458350Y-106048094D01*
X153428660Y-106063766D01*
X153409031Y-106098691D01*
X153398188Y-106155901D01*
X153394857Y-106238430D01*
X153250083Y-106238430D01*
X153249714Y-106224267D01*
X153250253Y-106156169D01*
X153252707Y-106104587D01*
X153258158Y-106068816D01*
X153267686Y-106042015D01*
X153282371Y-106017338D01*
X153295852Y-105998480D01*
X153344799Y-105947568D01*
X153400256Y-105919918D01*
X153469928Y-105911165D01*
X153549664Y-105919890D01*
X153618595Y-105951185D01*
X153673113Y-106006381D01*
X153677223Y-106012224D01*
X153686808Y-106027753D01*
X153694151Y-106045498D01*
X153699612Y-106069290D01*
X153703550Y-106102958D01*
X153706323Y-106150333D01*
X153708292Y-106215245D01*
X153708528Y-106228603D01*
X153709815Y-106301524D01*
G37*
D12*
%TO.C,J1*%
X156270000Y-128950000D02*
X153610000Y-128950000D01*
X156270000Y-116190000D02*
X156270000Y-128950000D01*
X156270000Y-116190000D02*
X153610000Y-116190000D01*
X156270000Y-114920000D02*
X156270000Y-113590000D01*
X156270000Y-113590000D02*
X154940000Y-113590000D01*
X153610000Y-116190000D02*
X153610000Y-128950000D01*
%TO.C,J2*%
X148650000Y-128950000D02*
X145990000Y-128950000D01*
X148650000Y-116190000D02*
X148650000Y-128950000D01*
X148650000Y-116190000D02*
X145990000Y-116190000D01*
X148650000Y-114920000D02*
X148650000Y-113590000D01*
X148650000Y-113590000D02*
X147320000Y-113590000D01*
X145990000Y-116190000D02*
X145990000Y-128950000D01*
%TD*%
M02*
